<svg xmlns="http://www.w3.org/2000/svg" viewBox="0 0 1000 324" width="100" height="32">
  <path fill="#00579F" d="M651.3,0.2h-248c-38.4,0-70.8,31.4-70.8,70.3v183.4c0,38.9,32.4,70.3,70.8,70.3h248c38.4,0,70.8-31.4,70.8-70.3V70.5 C722.1,31.6,689.7,0.2,651.3,0.2z"/>
  <path fill="#FAA61A" d="M475.8,142.8l-89.9-0.1l-0.2,0.9c-2.2,8.7-4.3,17.6-6.3,26.9h82.5c-10.6,40.3-32.8,62.5-67.8,66.4 c-30.8,3.5-58.1-5.9-82.2-27.9c-1.2-1.1-2.5-2.2-4.1-3.6c-0.1,0.6-0.1,0.9-0.2,1.1c-11.9,43.8,17.1,74.6,60.5,74.6 c28.1,0,50.8-9.3,68.1-27.9c14.3-15.3,23.6-35.4,27.9-59.9C469.1,176.1,473.1,159.3,475.8,142.8z"/>
  <path fill="#FFFFFF" d="M651.2,142.7h-55.9c-2.5,0-4.9,1.3-6.3,3.4l-73.3,109.4l-30.8-103.1c-0.8-2.7-3.3-4.5-6.1-4.5h-54.8 c-2.6,0-4.3,2.5-3.5,4.9l58.2,170.9c0.8,2.4,3.1,4.1,5.7,4.1h45.7c2.5,0,4.9-1.3,6.3-3.4l109.3-162.9 C648.1,158.1,651.2,142.7,651.2,142.7z"/>
  <path fill="#FFFFFF" d="M357.6,142.7h-55.9c-2.5,0-4.9,1.3-6.3,3.4l-73.3,109.4l-30.8-103.1c-0.8-2.7-3.3-4.5-6.1-4.5h-54.8 c-2.6,0-4.3,2.5-3.5,4.9l58.2,170.9c0.8,2.4,3.1,4.1,5.7,4.1h45.7c2.5,0,4.9-1.3,6.3-3.4l109.3-162.9 C354.5,158.1,357.6,142.7,357.6,142.7z"/>
</svg>